<?xml version="1.0" encoding="UTF-8"?>
<!DOCTYPE svg PUBLIC "-//W3C//DTD SVG 1.1//EN" "http://www.w3.org/Graphics/SVG/1.1/DTD/svg11.dtd">
<!-- Creator: CorelDRAW 2018 (64 bitů) -->
<svg xmlns="http://www.w3.org/2000/svg" xml:space="preserve" width="14mm" height="14mm" version="1.1" style="shape-rendering:geometricPrecision; text-rendering:geometricPrecision; image-rendering:optimizeQuality; fill-rule:evenodd; clip-rule:evenodd"
viewBox="0 0 570.18 570.18"
 xmlns:xlink="http://www.w3.org/1999/xlink">
 <defs>
  <style type="text/css">
   <![CDATA[
    .fil0 {fill:#9EA3A8}
   ]]>
  </style>
 </defs>
 <g id="Vrstva_x0020_1">
  <metadata id="CorelCorpID_0Corel-Layer"/>
  <path class="fil0" d="M-0 0l570.18 0 0 570.18 -570.18 0 0 -570.18zm196.76 185.01l175.72 0 0 16.17 -79.73 0 0 208.27 -16.27 0 0 -208.27 -79.72 0 0 -16.17zm338.61 154.36l19.03 0 -1.14 4.98c-28.15,123.03 -139.31,209.54 -265.36,209.54 -148.71,0 -272.12,-119.3 -272.12,-268.79 0,-149.5 123.4,-268.79 272.12,-268.79 123.36,0 232.85,82.87 263.71,202.43l1.32 5.09 -19.19 0 -0.81 -3.01c-29.67,-110.13 -131.05,-186.06 -245.02,-186.06 -138.52,0 -253.53,111.07 -253.53,250.35 0,139.27 115.01,250.34 253.53,250.34 116.56,0 219.62,-79.42 246.73,-192.93l0.75 -3.13z"/>
 </g>
</svg>
