<svg version="1.2" xmlns="http://www.w3.org/2000/svg" viewBox="0 0 1640 639" width="1640" height="639"><style>.a{fill:#ba1b02}.b{fill:#fff}.c{fill:#aaa}.d{fill:#d7d7d7}</style><path class="a" d="m0 0h1640v640h-1640z"/><path fill-rule="evenodd" class="b" d="m1354 334.5v-0.2q0.2 0.1 0.4 0.2zm0-0.2v-14.6c0-12.8-13.2-19.6-27.3-19.2-10.4 0-21.2 3.3-27.6 10.7l-15.4-16.1c14.1-15.8 29.9-19.6 46.7-19.6 25.6 0 51.5 13.5 51.5 43.2v83.5c-12.1 4.4-30.3 8.7-49.5 8.7-27.2 0-53.1-8.7-53.1-39.7 0-28.6 24.2-41.8 48.4-41.8 9.3 0 18.9 1.7 26.3 4.9zm0.3 21.7c-5.7-2.3-14.1-4.3-22.5-4.3-16.2 0-25.3 8-25.3 19.5 0 12.4 11.8 16.8 24.2 16.8 9.1 0 17.5-1.3 23.6-2.7zm-78.7 54.9c-3.7 0.4-7.1 0.7-10.4 0.7-25.6 0-46.1-13.8-46.1-46.8v-117.5h24.9l2.6 30.6h24.9v25.3h-24.9v61.3c0 20.5 13.8 21.8 29 21.8zm-74.4-26.6c-10.1 17.9-29.6 26.6-46.7 26.6-25.9 0-51.8-14.8-51.8-44.7v-45.8c0-30.4 26.2-44.8 51.8-44.8 24.9 0 50.8 14.1 50.8 44.8v36h-74.7v9.1c0 11.8 11.4 18.8 23.2 18.8 9.4 0 19.5-3.3 24.2-13.1zm-22.8-51.2v-12.1c0-12.1-11.8-18.5-23.9-18.5-12.5 0-24.2 6-23.9 18.8v11.8zm-106.6-54.9h34.9l-54.5 60.3 54.2 70.4h-32.6l-41.1-53.6-7.7 7.8v45.5h-27.6v-178.9h27.6v101.1zm-189.1 42.4c0-30.7 26-45.1 51.5-45.1 20.5 0 43.7 9.4 50.8 34.3l-25.2 9.4c-3.4-11.4-13.5-16.8-24.2-16.8-11.8 0-24.9 6.1-24.9 17.5v46.5c0 11.1 11.7 17.5 23.9 17.5 10.7 0 22.2-5.4 25.5-16.8l25.6 9.4c-7.1 24.9-30.6 34.3-51.1 34.3-25.6 0-51.5-14.4-51.5-44.7zm-43.1-1.1c0-12.8-13.1-19.5-27.2-19.2-10.4 0-21.2 3.4-27.6 10.8l-15.5-16.1c14.2-15.9 30.3-19.6 46.8-19.6 25.5 0 51.4 13.5 51.4 43.1v83.6c-12.1 4.3-30.2 8.7-49.4 8.7-27.2 0-53.1-8.7-53.1-39.7 0-28.7 24.2-41.8 48.4-41.8 9.4 0 19.2 1.7 26.6 5.1zm0.3 36.3c-5.7-2.3-14.1-4.3-22.5-4.3-16.2 0-25.3 8-25.3 19.5 0 12.4 11.5 16.8 24.3 16.8 9 0 17.4-1.3 23.5-2.7zm-209.6-125.9h69c41.4 0 61.9 30 61.9 58.9 0 29.7-20.9 57.9-61.6 57.9h-40.7v61.7h-28.6zm28.6 89.6h40.4c22.2 0 33-15.9 33-30.7 0-14.8-11.5-30-33-30h-40.4z"/><path class="b" d="m409.9 289.1l-7.3 3.5-7.3-3.5-102.2-50.5 48.4-18.5 104.9 50.9zm102.3-50.5l-36.6 17.7-106-47.1 33-12.7z"/><path class="b" d="m406.6 163.9l134 51.8-18.8 15.1-119.2-46.2-119.2 46.2-18.9-15.1 134.3-51.8zm118.3 71.4l22.2-8.6-16.6 137.5-3.4 6.1-117.7 105.8-3.8-24.3 104.8-94.2zm-246.8 135.1l-3.4-6.1-16.7-137.5 22.2 8.5 14.7 122.5 104.7 94.1-3.7 24.3z"/><path class="c" d="m478.5 260.7l33.8-20.6-13.3 110.7-95.7 86.1 5.3-133.4 42-25.8-2.8 65.4 26.2-18.4z"/><path class="d" d="m396.6 303.5l5.3 133.3-95.6-86-13.5-110.7z"/></svg>